<?xml version="1.0" encoding="UTF-8"?>
<svg xmlns="http://www.w3.org/2000/svg" xmlns:xlink="http://www.w3.org/1999/xlink" width="199pt" height="178pt" viewBox="0 0 199 178" version="1.1">
<g id="surface1">
<path style=" stroke:none;fill-rule:nonzero;fill:rgb(0.392157%,0.392157%,0%);fill-opacity:1;" d="M 97.578125 170.847656 C 96.679688 169.015625 94.921875 165.289062 93.695312 162.527344 C 90.480469 155.277344 87.925781 150.285156 85.835938 147.058594 C 81.855469 140.96875 79.070312 134.183594 77.578125 127.09375 C 76.613281 122.503906 76.546875 114.984375 77.378906 110.691406 C 78.835938 103.375 82.417969 95.453125 87.0625 89.167969 C 88.621094 87.070312 89.980469 85.007812 90.082031 84.574219 C 90.480469 83.078125 89.949219 81.648438 88.621094 80.75 C 87.925781 80.28125 86.367188 79.085938 85.171875 78.054688 L 82.949219 76.191406 L 72.269531 76.191406 L 72.703125 76.957031 C 72.898438 77.355469 73.265625 78.386719 73.464844 79.25 C 73.761719 80.683594 73.996094 80.949219 75.621094 81.914062 C 77.777344 83.242188 79.601562 85.472656 79.601562 86.871094 C 79.601562 87.570312 79.203125 88.300781 78.238281 89.332031 C 77.476562 90.164062 76.679688 90.828125 76.449219 90.828125 C 76.21875 90.828125 75.585938 91.363281 75.054688 91.996094 C 74.226562 93.058594 73.828125 93.226562 70.84375 93.824219 C 66.730469 94.65625 65.933594 94.65625 65.140625 93.792969 C 64.808594 93.390625 63.746094 92.726562 62.816406 92.328125 C 61.191406 91.59375 59.367188 89.632812 59.367188 88.632812 C 59.367188 88.402344 58.769531 87.800781 58.042969 87.238281 C 55.519531 85.375 53.597656 82.347656 52.203125 78.019531 L 51.476562 75.691406 L 42.554688 75.492188 C 22.851562 75.027344 13.863281 73.164062 7.363281 68.273438 C 3.914062 65.675781 3.085938 63.746094 4.476562 61.386719 C 8.226562 54.929688 20.960938 48.410156 35.621094 45.382812 C 37.777344 44.949219 39.898438 44.582031 40.332031 44.582031 C 41.757812 44.582031 41.160156 44.117188 37.777344 42.519531 C 25.105469 36.566406 12.667969 26.21875 7 16.835938 C 5.074219 13.609375 4.179688 10.546875 4.179688 6.988281 L 4.144531 3.824219 L 5.96875 3.09375 C 14.128906 -0.132812 28.886719 2.59375 43.613281 10.148438 C 54.925781 15.902344 65.769531 24.121094 77.113281 35.433594 L 82.121094 40.425781 L 82.085938 38.261719 C 82.019531 36.464844 81.820312 35.667969 80.695312 33.4375 C 77.542969 27.214844 76.285156 19.265625 77.277344 12.144531 C 77.742188 8.949219 78.804688 5.890625 79.765625 4.992188 L 80.59375 4.226562 L 81.820312 4.859375 C 84.90625 6.453125 88.089844 11.246094 89.351562 16.167969 C 89.847656 18.164062 90.082031 23.722656 89.683594 24.71875 C 89.582031 25.019531 89.25 25.152344 88.886719 25.054688 C 88.421875 24.921875 88.125 24.15625 87.558594 21.859375 C 86.234375 16.371094 83.84375 11.210938 82.121094 10.246094 C 81.292969 9.78125 81.125 10.648438 81.125 15.804688 C 81.160156 21.660156 81.753906 25.519531 83.449219 30.875 L 84.640625 34.601562 L 85.835938 34.601562 C 86.53125 34.636719 87.527344 34.835938 88.058594 35.066406 C 88.953125 35.433594 89.25 35.398438 91.074219 34.535156 C 96.28125 32.074219 101.621094 32.171875 107.460938 34.800781 C 108.984375 35.5 109.484375 35.566406 110.246094 35.265625 C 110.742188 35.101562 111.707031 34.933594 112.402344 34.933594 L 113.695312 34.933594 L 114.855469 31.339844 C 116.8125 25.519531 117.707031 18.632812 117.246094 13.175781 C 116.980469 9.78125 116.613281 9.582031 114.957031 11.910156 C 113.398438 14.007812 111.90625 17.632812 111.074219 21.394531 C 110.675781 23.058594 110.3125 24.652344 110.246094 24.886719 C 110.046875 25.585938 108.886719 25.351562 108.652344 24.554688 C 108.289062 23.15625 108.453125 18.796875 108.984375 16.636719 C 109.648438 13.773438 111.738281 9.515625 113.363281 7.617188 C 115.054688 5.6875 117.507812 4.324219 118.304688 4.859375 C 119.996094 5.921875 121.390625 11.613281 121.390625 17.46875 C 121.390625 23.421875 120.195312 28.679688 117.640625 33.769531 C 116.546875 35.964844 116.316406 36.796875 116.28125 38.496094 L 116.25 40.589844 L 120.890625 35.964844 C 136.8125 20.195312 151.171875 10.546875 166.5625 5.289062 C 177.078125 1.695312 187.789062 1 192.964844 3.558594 C 194.488281 4.324219 194.753906 5.324219 194.355469 8.515625 C 193.660156 13.941406 190.574219 19.363281 184.574219 25.585938 C 178.039062 32.371094 171.105469 37.429688 162.117188 41.921875 L 156.878906 44.515625 L 159.300781 44.914062 C 172.597656 47.046875 186.363281 52.96875 191.835938 58.921875 C 194.222656 61.519531 194.820312 62.617188 194.523438 64.148438 C 194.191406 65.941406 191.171875 68.769531 187.757812 70.46875 C 180.792969 73.960938 172.964844 75.226562 154.425781 75.792969 L 146.796875 76.023438 L 146.398438 77.6875 C 145.570312 80.847656 143.445312 84.609375 141.324219 86.570312 C 140.261719 87.570312 139.132812 88.832031 138.867188 89.398438 C 138.140625 90.796875 136.382812 92.425781 135.320312 92.660156 C 134.789062 92.757812 134.125 93.160156 133.792969 93.523438 C 132.601562 94.855469 132.167969 94.890625 127.988281 94.125 C 124.472656 93.457031 123.945312 93.257812 123.511719 92.527344 C 123.214844 92.0625 122.386719 91.296875 121.65625 90.828125 C 120.0625 89.832031 118.738281 88 118.738281 86.804688 C 118.738281 85.640625 121.191406 82.878906 123.179688 81.847656 C 124.472656 81.148438 124.707031 80.847656 124.90625 79.683594 C 125.003906 78.953125 125.304688 77.953125 125.570312 77.488281 L 126 76.625 L 115.585938 76.289062 L 113.5625 78.019531 C 112.433594 78.984375 110.84375 80.25 110.015625 80.847656 C 108.785156 81.714844 108.453125 82.179688 108.289062 83.210938 C 108.023438 84.773438 108.257812 85.242188 111.90625 90.132812 C 116.050781 95.722656 119.332031 103.140625 120.925781 110.460938 C 121.855469 114.652344 121.753906 123.070312 120.792969 127.628906 C 119.332031 134.382812 116.648438 140.804688 112.234375 147.957031 C 109.714844 152.015625 107.59375 156.207031 104.308594 163.527344 C 102.984375 166.453125 101.324219 170.046875 100.59375 171.511719 L 99.234375 174.175781 Z M 97.578125 170.847656 "/>
<path style=" stroke:none;fill-rule:nonzero;fill:rgb(26.27451%,24.705882%,0.784314%);fill-opacity:1;" d="M 57.578125 84.34375 C 53.996094 79.652344 52.535156 72.464844 54.0625 67.40625 C 54.890625 64.710938 57.445312 61.785156 59.535156 61.050781 L 60.859375 60.621094 L 60.726562 58.089844 C 60.628906 55.894531 60.726562 55.328125 61.492188 53.765625 C 62.949219 50.773438 65.96875 49.207031 70.3125 49.175781 C 73.265625 49.175781 75.089844 49.605469 76.78125 50.773438 C 77.941406 51.535156 78.074219 51.570312 78.570312 51.070312 C 79.070312 50.570312 79.035156 50.472656 78.207031 49.738281 C 77.675781 49.308594 77.277344 48.875 77.277344 48.773438 C 77.277344 48.675781 77.777344 48.34375 78.371094 48.042969 C 78.9375 47.742188 80.230469 46.980469 81.191406 46.3125 C 82.152344 45.679688 82.984375 45.214844 83.050781 45.28125 C 83.082031 45.347656 83.480469 45.980469 83.878906 46.644531 C 84.277344 47.34375 85.171875 48.375 85.867188 48.976562 C 86.566406 49.574219 89.351562 52.769531 92.105469 56.0625 C 94.855469 59.355469 97.609375 62.648438 98.238281 63.347656 L 99.402344 64.679688 L 100.230469 63.679688 C 103.480469 59.886719 105.769531 57.191406 108.621094 53.734375 C 110.445312 51.535156 112.46875 49.207031 113.097656 48.574219 C 113.726562 47.910156 114.492188 46.945312 114.757812 46.414062 C 115.023438 45.847656 115.253906 45.382812 115.289062 45.316406 C 115.320312 45.25 116.183594 45.8125 117.210938 46.511719 C 118.207031 47.246094 119.5 48.011719 120.0625 48.242188 C 121.289062 48.742188 121.289062 49.007812 120.195312 49.875 C 119.5 50.4375 119.398438 50.636719 119.730469 51.203125 C 120.097656 51.902344 120.097656 51.902344 121.324219 51.070312 C 124.175781 49.175781 129.550781 48.742188 132.765625 50.171875 C 136.382812 51.769531 137.875 54.296875 137.542969 58.355469 L 137.375 60.785156 L 138.601562 61.152344 C 140.492188 61.75 142.449219 63.648438 143.679688 66.109375 C 144.574219 67.9375 144.773438 68.738281 144.871094 71.265625 C 145.105469 76.058594 143.445312 81.347656 140.824219 84.375 L 139.664062 85.671875 L 139.632812 84.640625 C 139.632812 84.042969 139.332031 82.613281 138.96875 81.382812 C 138.171875 78.886719 136.613281 76.957031 135.023438 76.65625 C 134.125 76.457031 134.027344 76.355469 134.191406 75.558594 C 134.957031 72.265625 136.546875 68.871094 137.308594 68.871094 C 137.476562 68.871094 138.171875 69.371094 138.867188 69.96875 C 140.128906 71.066406 140.097656 70.800781 138.703125 68.972656 C 137.875 67.839844 136.480469 67.507812 135.75 68.238281 C 135.453125 68.539062 134.921875 68.238281 133.59375 67.140625 C 130.34375 64.414062 122.453125 59.222656 121.554688 59.222656 C 121.324219 59.222656 120.957031 59.6875 120.761719 60.21875 C 120.429688 61.183594 120.460938 61.253906 122.085938 62.082031 C 123.347656 62.714844 123.746094 63.082031 123.613281 63.480469 C 123.511719 63.78125 123.015625 65.511719 122.519531 67.273438 C 121.65625 70.300781 121.523438 70.566406 120.5625 70.867188 C 118.273438 71.632812 114.09375 72.199219 109.515625 72.429688 C 104.011719 72.664062 104.144531 72.964844 109.949219 73.59375 L 113.726562 73.996094 L 111.640625 76.058594 C 110.476562 77.1875 109.25 78.488281 108.953125 78.984375 L 108.386719 79.851562 L 90.578125 79.851562 L 87.59375 76.789062 L 84.609375 73.695312 L 85.835938 73.628906 C 86.5 73.5625 88.324219 73.363281 89.882812 73.128906 L 92.699219 72.730469 L 86.898438 72.132812 C 83.710938 71.800781 80.128906 71.265625 78.96875 70.96875 L 76.878906 70.367188 L 75.753906 66.707031 C 75.15625 64.710938 74.65625 62.949219 74.625 62.847656 C 74.625 62.75 75.386719 62.316406 76.285156 61.882812 C 77.210938 61.453125 77.941406 61.085938 77.941406 61.050781 C 77.941406 60.585938 77.144531 58.890625 76.914062 58.890625 C 76.285156 58.890625 68.390625 64.046875 65.867188 66.109375 C 64.109375 67.507812 63.050781 68.140625 62.71875 68.007812 C 61.226562 67.375 60.792969 67.507812 59.601562 68.835938 C 57.941406 70.667969 58.042969 71.332031 59.734375 69.703125 L 61.058594 68.371094 L 61.824219 69.304688 C 62.652344 70.335938 63.945312 73.761719 64.078125 75.324219 C 64.175781 76.15625 64.042969 76.324219 63.214844 76.554688 C 61.09375 77.15625 59.632812 79.484375 58.902344 83.410156 L 58.507812 85.605469 Z M 57.578125 84.34375 "/>
<path style=" stroke:none;fill-rule:nonzero;fill:rgb(26.27451%,24.705882%,0.784314%);fill-opacity:1;" d="M 95.554688 57.726562 C 93.5625 55.429688 91.308594 52.835938 90.578125 51.9375 L 89.21875 50.339844 L 91.972656 50.371094 C 94.390625 50.40625 94.957031 50.273438 96.945312 49.339844 L 99.203125 48.242188 L 101.488281 49.441406 C 103.644531 50.570312 103.910156 50.636719 106.398438 50.539062 C 108.453125 50.4375 109.019531 50.503906 108.820312 50.804688 C 108.519531 51.371094 99.832031 61.519531 99.46875 61.71875 C 99.335938 61.816406 97.578125 60.019531 95.554688 57.726562 Z M 95.554688 57.726562 "/>
<path style=" stroke:none;fill-rule:nonzero;fill:rgb(26.27451%,24.705882%,0.784314%);fill-opacity:1;" d="M 100.230469 47.84375 C 100.03125 47.644531 99.832031 47.113281 99.832031 46.679688 C 99.832031 46.148438 99.632812 45.914062 99.167969 45.914062 C 98.738281 45.914062 98.503906 46.148438 98.503906 46.546875 C 98.503906 46.878906 98.273438 47.34375 98.007812 47.578125 C 97.011719 48.410156 95.089844 47.410156 92.136719 44.648438 C 87.261719 40.058594 85.703125 39.125 84.277344 39.925781 C 83.613281 40.257812 83.578125 40.191406 83.578125 38.660156 C 83.578125 36.566406 84.375 35.765625 86.332031 35.800781 C 87.527344 35.832031 87.890625 36.066406 89.152344 37.429688 C 89.949219 38.328125 90.808594 39.492188 91.109375 40.058594 C 92.039062 41.886719 93.429688 43.386719 94.890625 44.21875 C 96.546875 45.148438 96.480469 45.050781 94.027344 42.222656 C 93.296875 41.390625 92.136719 39.757812 91.472656 38.628906 L 90.246094 36.53125 L 92.039062 35.734375 C 93 35.265625 94.855469 34.703125 96.117188 34.433594 C 98.140625 34.003906 98.804688 34.003906 101.058594 34.402344 C 103.414062 34.835938 106.664062 35.867188 107.726562 36.53125 C 108.289062 36.898438 106.398438 40.058594 103.945312 42.851562 C 102.019531 45.015625 101.953125 45.214844 103.414062 44.449219 C 104.640625 43.785156 106.066406 42.1875 107.957031 39.328125 C 110.046875 36.164062 111.507812 35.367188 113.5625 36.296875 C 114.523438 36.765625 115.222656 38.460938 114.921875 39.691406 C 114.722656 40.425781 114.625 40.492188 113.761719 40.15625 C 112.335938 39.625 110.976562 40.390625 107.691406 43.585938 C 103.746094 47.378906 101.226562 48.84375 100.230469 47.84375 Z M 100.230469 47.84375 "/>
<path style=" stroke:none;fill-rule:nonzero;fill:rgb(37.254902%,37.254902%,37.254902%);fill-opacity:1;" d="M 66.433594 91.628906 C 65.835938 90.964844 64.941406 89.664062 64.441406 88.699219 C 63.976562 87.769531 63.414062 86.902344 63.25 86.769531 C 62.683594 86.40625 62.023438 87.136719 62.023438 88.136719 L 61.988281 89 L 61.492188 88.070312 C 60.199219 85.640625 60.792969 81.015625 62.683594 79.152344 C 63.746094 78.085938 64.808594 77.789062 63.914062 78.785156 C 63.582031 79.117188 63.347656 79.519531 63.347656 79.617188 C 63.347656 80.25 64.308594 79.652344 66.433594 77.6875 C 67.726562 76.488281 68.988281 75.523438 69.285156 75.589844 C 70.113281 75.757812 71.109375 78.152344 71.242188 80.347656 L 71.375 82.347656 L 70.246094 81.246094 C 69.285156 80.347656 69.019531 80.25 68.722656 80.617188 C 68.222656 81.179688 69.816406 83.710938 71.40625 84.941406 C 72.667969 85.90625 74.957031 86.9375 74.957031 86.539062 C 74.957031 86.40625 74.460938 85.707031 73.828125 84.972656 C 72.964844 83.941406 72.769531 83.511719 73 83.078125 C 73.296875 82.578125 73.429688 82.546875 74.226562 83.011719 C 75.488281 83.675781 77.046875 85.140625 77.910156 86.4375 L 78.636719 87.503906 L 77.542969 88.535156 C 76.945312 89.101562 75.851562 90.132812 75.121094 90.828125 C 73.929688 91.960938 73.53125 92.128906 71.207031 92.460938 C 67.660156 92.960938 67.726562 92.960938 66.433594 91.628906 Z M 66.433594 91.628906 "/>
<path style=" stroke:none;fill-rule:nonzero;fill:rgb(37.254902%,37.254902%,37.254902%);fill-opacity:1;" d="M 88.789062 48.910156 C 85.503906 47.910156 83.148438 43.351562 84.839844 41.257812 L 85.402344 40.558594 L 86.863281 41.324219 C 87.660156 41.753906 89.449219 43.320312 90.808594 44.816406 C 92.203125 46.3125 93.828125 47.808594 94.425781 48.144531 C 95.355469 48.640625 95.421875 48.773438 94.957031 48.976562 C 94.128906 49.273438 89.914062 49.242188 88.789062 48.910156 Z M 88.789062 48.910156 "/>
<path style=" stroke:none;fill-rule:nonzero;fill:rgb(37.254902%,37.254902%,37.254902%);fill-opacity:1;" d="M 102.816406 49.109375 C 102.816406 49.007812 103.214844 48.707031 103.746094 48.441406 C 104.242188 48.175781 106.132812 46.480469 107.957031 44.648438 C 111.539062 41.089844 112.765625 40.390625 113.628906 41.457031 C 114.359375 42.386719 114.058594 45.015625 113.066406 46.414062 C 111.375 48.773438 110.675781 49.074219 106.566406 49.175781 C 104.507812 49.242188 102.816406 49.207031 102.816406 49.109375 Z M 102.816406 49.109375 "/>
<path style=" stroke:none;fill-rule:nonzero;fill:rgb(99.607843%,93.72549%,2.745098%);fill-opacity:1;" d="M 96.847656 155.742188 C 95.15625 155.210938 93.894531 154.378906 92.832031 153.078125 C 91.972656 152.082031 87.328125 144.628906 86.300781 142.601562 C 86.199219 142.433594 86.832031 142.800781 87.691406 143.363281 C 93.265625 147.222656 101.855469 147.558594 109.382812 144.195312 C 110.378906 143.765625 111.339844 143.429688 111.472656 143.464844 C 111.839844 143.597656 106.761719 151.949219 105.535156 153.246094 C 103.578125 155.308594 99.269531 156.539062 96.847656 155.742188 Z M 96.847656 155.742188 "/>
<path style=" stroke:none;fill-rule:nonzero;fill:rgb(99.607843%,93.72549%,2.745098%);fill-opacity:1;" d="M 93.230469 131.753906 C 87.992188 131.1875 81.160156 129.058594 80.792969 127.859375 C 80.230469 125.863281 79.433594 118.34375 79.734375 117.8125 C 79.832031 117.644531 80.792969 117.746094 81.820312 117.980469 C 88.554688 119.574219 102.085938 120.007812 112.898438 118.945312 C 115.949219 118.644531 118.570312 118.476562 118.671875 118.578125 C 118.902344 118.84375 118.140625 126.230469 117.742188 127.226562 C 117.410156 128.09375 115.652344 128.890625 111.308594 130.089844 C 106.066406 131.585938 98.371094 132.285156 93.230469 131.753906 Z M 93.230469 131.753906 "/>
<path style=" stroke:none;fill-rule:nonzero;fill:rgb(99.607843%,93.72549%,2.745098%);fill-opacity:1;" d="M 82.019531 105.070312 C 82.152344 104.605469 82.785156 102.941406 83.449219 101.375 C 84.773438 98.183594 85.4375 97.582031 90.214844 95.355469 C 94.191406 93.523438 96.449219 93.058594 100.660156 93.257812 C 104.972656 93.425781 107.527344 94.257812 111.175781 96.6875 C 113.230469 98.050781 113.597656 98.480469 114.390625 100.277344 C 115.683594 103.171875 116.546875 105.46875 116.382812 105.636719 C 116.28125 105.703125 115.121094 105.46875 113.761719 105.136719 C 110.082031 104.171875 104.277344 103.472656 99.898438 103.472656 C 94.292969 103.472656 91.074219 103.90625 82.617188 105.734375 C 81.921875 105.867188 81.855469 105.800781 82.019531 105.070312 Z M 82.019531 105.070312 "/>
<path style=" stroke:none;fill-rule:nonzero;fill:rgb(99.607843%,93.72549%,2.745098%);fill-opacity:1;" d="M 57.578125 84.34375 C 53.996094 79.652344 52.535156 72.464844 54.0625 67.40625 C 54.890625 64.710938 57.445312 61.785156 59.535156 61.050781 L 60.859375 60.621094 L 60.726562 58.089844 C 60.628906 55.894531 60.726562 55.328125 61.492188 53.765625 C 62.949219 50.773438 65.96875 49.207031 70.3125 49.175781 C 73.265625 49.175781 75.089844 49.605469 76.78125 50.773438 C 77.941406 51.535156 78.074219 51.570312 78.570312 51.070312 C 79.070312 50.570312 79.035156 50.472656 78.207031 49.738281 C 77.675781 49.308594 77.277344 48.875 77.277344 48.773438 C 77.277344 48.675781 77.777344 48.34375 78.371094 48.042969 C 78.9375 47.742188 80.230469 46.980469 81.191406 46.3125 C 82.152344 45.679688 82.984375 45.214844 83.050781 45.28125 C 83.082031 45.347656 83.480469 45.980469 83.878906 46.644531 C 84.277344 47.34375 85.171875 48.375 85.867188 48.976562 C 86.566406 49.574219 89.351562 52.769531 92.105469 56.0625 C 94.855469 59.355469 97.609375 62.648438 98.238281 63.347656 L 99.402344 64.679688 L 100.230469 63.679688 C 103.480469 59.886719 105.769531 57.191406 108.621094 53.734375 C 110.445312 51.535156 112.46875 49.207031 113.097656 48.574219 C 113.726562 47.910156 114.492188 46.945312 114.757812 46.414062 C 115.023438 45.847656 115.253906 45.382812 115.289062 45.316406 C 115.320312 45.25 116.183594 45.8125 117.210938 46.511719 C 118.207031 47.246094 119.5 48.011719 120.0625 48.242188 C 121.289062 48.742188 121.289062 49.007812 120.195312 49.875 C 119.5 50.4375 119.398438 50.636719 119.730469 51.203125 C 120.097656 51.902344 120.097656 51.902344 121.324219 51.070312 C 124.175781 49.175781 129.550781 48.742188 132.765625 50.171875 C 136.382812 51.769531 137.875 54.296875 137.542969 58.355469 L 137.375 60.785156 L 138.601562 61.152344 C 140.492188 61.75 142.449219 63.648438 143.679688 66.109375 C 144.574219 67.9375 144.773438 68.738281 144.871094 71.265625 C 145.105469 76.058594 143.445312 81.347656 140.824219 84.375 L 139.664062 85.671875 L 139.632812 84.640625 C 139.632812 84.042969 139.332031 82.613281 138.96875 81.382812 C 138.171875 78.886719 136.613281 76.957031 135.023438 76.65625 C 134.125 76.457031 134.027344 76.355469 134.191406 75.558594 C 134.988281 72.230469 136.546875 68.871094 137.34375 68.871094 C 137.542969 68.871094 138.207031 69.4375 138.800781 70.136719 C 140.296875 71.730469 140.425781 70.734375 138.933594 69.039062 C 137.875 67.839844 136.515625 67.472656 135.75 68.238281 C 135.453125 68.539062 134.921875 68.238281 133.59375 67.140625 C 130.34375 64.414062 122.453125 59.222656 121.554688 59.222656 C 121.324219 59.222656 120.957031 59.6875 120.761719 60.21875 C 120.429688 61.183594 120.460938 61.253906 122.085938 62.082031 C 123.347656 62.714844 123.746094 63.082031 123.613281 63.480469 C 123.511719 63.78125 123.015625 65.511719 122.519531 67.308594 L 121.589844 70.566406 L 119.898438 71.035156 C 116.449219 72 113.761719 72.296875 108.15625 72.332031 C 102.851562 72.363281 102.519531 72.398438 104.175781 72.765625 C 105.171875 72.996094 107.726562 73.363281 109.847656 73.5625 L 113.726562 73.996094 L 111.640625 76.023438 C 110.476562 77.1875 109.25 78.488281 108.953125 78.984375 L 108.386719 79.851562 L 90.578125 79.851562 L 87.59375 76.789062 L 84.609375 73.695312 L 87.492188 73.496094 C 90.046875 73.296875 96.515625 72.265625 96.515625 72.03125 C 96.515625 72 94.523438 72.03125 92.105469 72.132812 C 87.359375 72.296875 82.253906 71.832031 78.9375 70.933594 L 76.878906 70.367188 L 75.753906 66.707031 C 75.15625 64.710938 74.65625 62.949219 74.625 62.847656 C 74.625 62.75 75.386719 62.316406 76.285156 61.882812 C 77.210938 61.453125 77.941406 61.085938 77.941406 61.050781 C 77.941406 60.585938 77.144531 58.890625 76.914062 58.890625 C 76.285156 58.890625 68.390625 64.046875 65.867188 66.109375 C 64.109375 67.507812 63.050781 68.140625 62.71875 68.007812 C 61.226562 67.375 60.792969 67.507812 59.601562 68.835938 C 57.941406 70.667969 58.042969 71.332031 59.734375 69.703125 L 61.058594 68.371094 L 61.824219 69.304688 C 62.652344 70.335938 63.945312 73.761719 64.078125 75.324219 C 64.175781 76.15625 64.042969 76.324219 63.214844 76.554688 C 61.09375 77.15625 59.632812 79.484375 58.902344 83.410156 L 58.507812 85.605469 Z M 57.578125 84.34375 "/>
<path style=" stroke:none;fill-rule:nonzero;fill:rgb(99.607843%,93.72549%,2.745098%);fill-opacity:1;" d="M 95.554688 57.726562 C 93.5625 55.429688 91.308594 52.835938 90.578125 51.9375 L 89.21875 50.339844 L 91.972656 50.371094 C 94.390625 50.40625 94.957031 50.273438 96.980469 49.308594 C 98.9375 48.375 99.335938 48.308594 99.796875 48.675781 C 100.097656 48.941406 101.125 49.472656 102.121094 49.875 C 103.578125 50.503906 104.375 50.605469 106.5 50.503906 C 108.453125 50.4375 109.019531 50.503906 108.820312 50.804688 C 108.519531 51.371094 99.832031 61.519531 99.46875 61.71875 C 99.335938 61.816406 97.578125 60.019531 95.554688 57.726562 Z M 95.554688 57.726562 "/>
<path style=" stroke:none;fill-rule:nonzero;fill:rgb(99.607843%,93.72549%,2.745098%);fill-opacity:1;" d="M 88.789062 48.910156 C 87.261719 48.441406 85.703125 47.046875 84.941406 45.480469 C 84.078125 43.71875 84.042969 42.222656 84.839844 41.257812 L 85.46875 40.492188 L 86.664062 41.324219 C 87.328125 41.753906 89.285156 43.484375 91.007812 45.148438 C 92.734375 46.8125 94.492188 48.277344 94.921875 48.441406 C 95.652344 48.675781 95.652344 48.675781 95.023438 48.941406 C 94.128906 49.273438 89.949219 49.273438 88.789062 48.910156 Z M 88.789062 48.910156 "/>
<path style=" stroke:none;fill-rule:nonzero;fill:rgb(99.607843%,93.72549%,2.745098%);fill-opacity:1;" d="M 95.652344 47.445312 C 95.089844 47.179688 93.296875 45.648438 91.671875 44.015625 C 88.222656 40.558594 86 39.292969 84.507812 39.859375 L 83.578125 40.191406 L 83.578125 38.628906 C 83.578125 36.597656 84.375 35.765625 86.300781 35.800781 C 87.925781 35.867188 89.351562 37.128906 90.742188 39.792969 C 91.90625 41.988281 93.929688 44.050781 95.6875 44.78125 L 97.011719 45.316406 L 96.347656 44.550781 C 95.949219 44.117188 95.054688 43.085938 94.324219 42.253906 C 93.597656 41.421875 92.371094 39.824219 91.574219 38.660156 L 90.179688 36.566406 L 92.003906 35.734375 C 93 35.300781 94.855469 34.703125 96.117188 34.433594 C 98.140625 34.003906 98.804688 34.003906 101.058594 34.402344 C 103.445312 34.835938 106.664062 35.867188 107.757812 36.566406 C 108.289062 36.898438 106.628906 39.492188 103.679688 42.886719 C 102.652344 44.085938 101.886719 45.082031 101.953125 45.148438 C 102.019531 45.214844 102.585938 45.082031 103.179688 44.816406 C 104.609375 44.21875 106.464844 42.222656 107.59375 40.15625 C 109.351562 36.929688 110.410156 35.933594 112.070312 35.933594 C 113.960938 35.933594 115.386719 37.796875 114.921875 39.691406 C 114.722656 40.457031 114.625 40.492188 113.726562 40.15625 C 112.269531 39.59375 110.277344 40.757812 106.695312 44.21875 C 105.003906 45.8125 103.3125 47.3125 102.917969 47.542969 C 101.191406 48.441406 99.832031 47.710938 99.832031 45.847656 C 99.832031 45.28125 99.730469 45.214844 99.53125 45.546875 C 99.300781 45.914062 99.167969 45.878906 98.871094 45.382812 C 98.570312 44.847656 98.539062 44.914062 98.503906 45.949219 C 98.503906 47.878906 97.644531 48.308594 95.652344 47.445312 Z M 95.652344 47.445312 "/>
<path style=" stroke:none;fill-rule:nonzero;fill:rgb(98.823529%,98.823529%,98.823529%);fill-opacity:1;" d="M 66.433594 91.628906 C 65.835938 90.964844 64.941406 89.664062 64.441406 88.699219 C 63.976562 87.769531 63.414062 86.902344 63.25 86.769531 C 62.683594 86.40625 62.023438 87.136719 62.023438 88.136719 L 61.988281 89 L 61.492188 88.070312 C 60.199219 85.640625 60.792969 81.015625 62.683594 79.152344 C 63.746094 78.085938 64.808594 77.789062 63.914062 78.785156 C 63.582031 79.117188 63.347656 79.519531 63.347656 79.617188 C 63.347656 80.25 64.308594 79.652344 66.433594 77.6875 C 67.726562 76.488281 68.988281 75.523438 69.285156 75.589844 C 70.113281 75.757812 71.109375 78.152344 71.242188 80.347656 L 71.375 82.347656 L 70.246094 81.246094 C 69.285156 80.347656 69.019531 80.25 68.722656 80.617188 C 68.222656 81.179688 69.816406 83.710938 71.40625 84.941406 C 72.667969 85.90625 74.957031 86.9375 74.957031 86.539062 C 74.957031 86.40625 74.460938 85.707031 73.828125 84.972656 C 72.964844 83.941406 72.769531 83.511719 73 83.078125 C 73.296875 82.578125 73.429688 82.546875 74.226562 83.011719 C 75.488281 83.675781 77.046875 85.140625 77.910156 86.40625 L 78.636719 87.503906 L 77.609375 88.402344 C 77.046875 88.933594 75.953125 89.964844 75.1875 90.695312 C 73.929688 91.960938 73.5625 92.128906 71.207031 92.460938 C 67.660156 92.960938 67.726562 92.960938 66.433594 91.628906 Z M 66.433594 91.628906 "/>
<path style=" stroke:none;fill-rule:nonzero;fill:rgb(98.823529%,98.823529%,98.823529%);fill-opacity:1;" d="M 126.199219 92.492188 C 124.738281 92.292969 124.277344 91.996094 122.320312 90.132812 C 121.058594 88.933594 120.0625 87.769531 120.0625 87.535156 C 120.0625 86.472656 123.878906 82.84375 124.972656 82.84375 C 125.867188 82.84375 125.636719 84.007812 124.507812 85.242188 C 123.878906 85.972656 123.414062 86.636719 123.480469 86.703125 C 123.84375 87.070312 126.296875 85.707031 127.625 84.410156 C 129.417969 82.679688 130.210938 81.246094 129.714844 80.75 C 129.449219 80.484375 129.085938 80.648438 128.421875 81.28125 C 127.925781 81.78125 127.394531 82.179688 127.261719 82.179688 C 127.128906 82.179688 127.027344 81.546875 127.027344 80.78125 C 127.027344 79.050781 128.421875 75.859375 129.183594 75.859375 C 129.484375 75.859375 130.742188 76.824219 132.003906 78.019531 C 134.625 80.484375 135.550781 80.882812 134.65625 79.152344 C 134.125 78.1875 134.855469 78.351562 135.851562 79.417969 C 137.507812 81.214844 138.105469 85.339844 137.078125 87.902344 L 136.480469 89.332031 L 136.316406 88.167969 C 136.050781 86.304688 135.1875 86.472656 134.125 88.566406 C 133.628906 89.53125 132.800781 90.894531 132.269531 91.59375 C 131.339844 92.757812 131.175781 92.824219 129.582031 92.792969 C 128.621094 92.757812 127.128906 92.625 126.199219 92.492188 Z M 126.199219 92.492188 "/>
<path style=" stroke:none;fill-rule:nonzero;fill:rgb(98.823529%,98.823529%,98.823529%);fill-opacity:1;" d="M 88.789062 48.910156 C 87.261719 48.441406 85.703125 47.046875 84.941406 45.480469 C 84.078125 43.71875 84.042969 42.222656 84.875 41.222656 L 85.46875 40.492188 L 86.597656 41.257812 C 87.226562 41.6875 89.152344 43.417969 90.910156 45.117188 C 92.632812 46.777344 94.425781 48.277344 94.890625 48.410156 C 95.652344 48.675781 95.652344 48.675781 95.023438 48.941406 C 94.128906 49.273438 89.949219 49.273438 88.789062 48.910156 Z M 88.789062 48.910156 "/>
<path style=" stroke:none;fill-rule:nonzero;fill:rgb(98.823529%,98.823529%,98.823529%);fill-opacity:1;" d="M 102.816406 49.109375 C 102.816406 49.007812 103.3125 48.675781 103.910156 48.375 C 104.476562 48.078125 106.398438 46.347656 108.15625 44.550781 C 111.539062 41.089844 112.765625 40.390625 113.628906 41.457031 C 114.359375 42.386719 114.058594 45.015625 113.066406 46.414062 C 111.375 48.773438 110.675781 49.074219 106.566406 49.175781 C 104.507812 49.242188 102.816406 49.207031 102.816406 49.109375 Z M 102.816406 49.109375 "/>
</g>
</svg>
